<svg xmlns="http://www.w3.org/2000/svg" viewBox="0 0 1280 720" font-family="Microsoft YaHei, PingFang SC, sans-serif">
  <defs>
    <linearGradient id="hide" x1="0" y1="0" x2="0" y2="1">
      <stop offset="0" stop-color="#161c26"/>
      <stop offset="1" stop-color="#0a0e14"/>
    </linearGradient>
    <radialGradient id="lamp" cx="0.5" cy="0.5" r="0.5">
      <stop offset="0" stop-color="#f5e9d0" stop-opacity="0.7"/>
      <stop offset="1" stop-color="#f5e9d0" stop-opacity="0"/>
    </radialGradient>
    <radialGradient id="screen" cx="0.5" cy="0.5" r="0.5">
      <stop offset="0" stop-color="#5aa7ff" stop-opacity="0.55"/>
      <stop offset="1" stop-color="#5aa7ff" stop-opacity="0"/>
    </radialGradient>
  </defs>

  <rect x="0" y="0" width="1280" height="720" fill="url(#hide)"/>
  <rect x="3" y="3" width="1274" height="714" fill="none" stroke="#f5c542" stroke-width="5"/>
  <text x="14" y="30" fill="#f5c542" font-size="16" font-weight="bold">左上角 (0,0)</text>
  <text x="1158" y="704" fill="#f5c542" font-size="16" font-weight="bold">右下角 (100,100)</text>

  <rect x="110" y="110" width="1060" height="500" fill="#1c2430" stroke="#3a4a5c" stroke-width="2"/>
  <rect x="110" y="610" width="1060" height="110" fill="#141b24"/>
  <text x="640" y="90" fill="#b7c4d0" font-size="15" text-anchor="middle">匿名藏点 · 白灯客身份</text>

  <!-- W20 暗号/加密入口｜23,33 -->
  <g>
    <rect x="180" y="180" width="240" height="180" fill="#0e151f" stroke="#4a5568" stroke-width="2"/>
    <line x1="180" y1="180" x2="420" y2="360" stroke="#4a5568" stroke-width="2"/>
    <text x="300" y="286" fill="#c8bfa8" font-size="15" text-anchor="middle">暗号</text>
    <circle cx="300" cy="240" r="70" fill="url(#lamp)"/>
    <circle cx="300" cy="240" r="52" fill="none" stroke="#ffb347" stroke-width="3" stroke-dasharray="8 6"/>
    <line x1="250" y1="240" x2="350" y2="240" stroke="#ffffff" stroke-width="1.5" opacity="0.9"/>
    <line x1="300" y1="190" x2="300" y2="290" stroke="#ffffff" stroke-width="1.5" opacity="0.9"/>
    <circle cx="300" cy="240" r="9" fill="#ff4757" stroke="#ffffff" stroke-width="3"/>
    <text x="300" y="170" fill="#ffb347" font-size="18" font-weight="bold" text-anchor="middle">W20 · 暗号/加密入口｜23,33</text>
  </g>

  <!-- W22 删除日志｜78,33 -->
  <g>
    <rect x="900" y="180" width="200" height="140" fill="#0a0f16" stroke="#4a6b8a" stroke-width="3"/>
    <rect x="912" y="194" width="176" height="12" fill="#5aa7ff" opacity="0.6"/>
    <rect x="912" y="214" width="140" height="12" fill="#5aa7ff" opacity="0.45"/>
    <rect x="912" y="234" width="160" height="12" fill="#5aa7ff" opacity="0.35"/>
    <rect x="912" y="254" width="120" height="12" fill="#ff4757" opacity="0.55"/>
    <circle cx="1000" cy="240" r="80" fill="url(#screen)"/>
    <circle cx="1000" cy="240" r="52" fill="none" stroke="#ffb347" stroke-width="3" stroke-dasharray="8 6"/>
    <line x1="950" y1="240" x2="1050" y2="240" stroke="#ffffff" stroke-width="1.5" opacity="0.9"/>
    <line x1="1000" y1="190" x2="1000" y2="290" stroke="#ffffff" stroke-width="1.5" opacity="0.9"/>
    <circle cx="1000" cy="240" r="9" fill="#ff4757" stroke="#ffffff" stroke-width="3"/>
    <text x="1000" y="170" fill="#ffb347" font-size="18" font-weight="bold" text-anchor="middle">W22 · 删除日志｜78,33</text>
  </g>

  <!-- W21 原文件与举报稿对比｜48,56 -->
  <g>
    <rect x="520" y="380" width="120" height="80" fill="#ece7dc" stroke="#8a7a5c" stroke-width="2" rx="2"/>
    <rect x="532" y="394" width="96" height="8" fill="#999"/>
    <rect x="532" y="410" width="80" height="8" fill="#999"/>
    <rect x="640" y="380" width="120" height="80" fill="#e8e2d4" stroke="#8a7a5c" stroke-width="2" rx="2"/>
    <rect x="652" y="394" width="70" height="8" fill="#c17a74"/>
    <rect x="652" y="410" width="96" height="8" fill="#999"/>
    <circle cx="620" cy="400" r="80" fill="url(#lamp)"/>
    <circle cx="620" cy="400" r="52" fill="none" stroke="#ffb347" stroke-width="3" stroke-dasharray="8 6"/>
    <line x1="570" y1="400" x2="670" y2="400" stroke="#ffffff" stroke-width="1.5" opacity="0.9"/>
    <line x1="620" y1="350" x2="620" y2="450" stroke="#ffffff" stroke-width="1.5" opacity="0.9"/>
    <circle cx="620" cy="400" r="9" fill="#ff4757" stroke="#ffffff" stroke-width="3"/>
    <text x="620" y="342" fill="#ffb347" font-size="18" font-weight="bold" text-anchor="middle">W21 · 原文件/举报稿对比｜48,56</text>
  </g>

  <!-- W23 未发送邮件与录音原声｜48,78 -->
  <g>
    <rect x="520" y="540" width="150" height="70" fill="#ece7dc" stroke="#8a7a5c" stroke-width="2" rx="2"/>
    <rect x="532" y="552" width="126" height="8" fill="#999"/>
    <rect x="532" y="568" width="100" height="8" fill="#999"/>
    <rect x="690" y="540" width="60" height="60" fill="#232b38" stroke="#4a6b8a" stroke-width="2" rx="4"/>
    <circle cx="720" cy="570" r="14" fill="#5aa7ff" opacity="0.7"/>
    <circle cx="620" cy="560" r="52" fill="none" stroke="#ffb347" stroke-width="3" stroke-dasharray="8 6"/>
    <line x1="570" y1="560" x2="670" y2="560" stroke="#ffffff" stroke-width="1.5" opacity="0.9"/>
    <line x1="620" y1="510" x2="620" y2="610" stroke="#ffffff" stroke-width="1.5" opacity="0.9"/>
    <circle cx="620" cy="560" r="9" fill="#ff4757" stroke="#ffffff" stroke-width="3"/>
    <text x="620" y="640" fill="#ffb347" font-size="18" font-weight="bold" text-anchor="middle">W23 · 未发送邮件/录音原声｜48,78</text>
  </g>

  <!-- W25 排水洞坐标纸｜78,78 -->
  <g>
    <rect x="900" y="520" width="160" height="90" fill="#ece7dc" stroke="#8a7a5c" stroke-width="2" rx="2"/>
    <rect x="914" y="534" width="132" height="60" fill="#2b3442" stroke="#4a6b8a" stroke-width="2"/>
    <circle cx="980" cy="564" r="10" fill="#ffb347" opacity="0.85"/>
    <rect x="914" y="600" width="110" height="6" fill="#999"/>
    <circle cx="1000" cy="560" r="52" fill="none" stroke="#ffb347" stroke-width="3" stroke-dasharray="8 6"/>
    <line x1="950" y1="560" x2="1050" y2="560" stroke="#ffffff" stroke-width="1.5" opacity="0.9"/>
    <line x1="1000" y1="510" x2="1000" y2="610" stroke="#ffffff" stroke-width="1.5" opacity="0.9"/>
    <circle cx="1000" cy="560" r="9" fill="#ff4757" stroke="#ffffff" stroke-width="3"/>
    <text x="1000" y="640" fill="#ffb347" font-size="18" font-weight="bold" text-anchor="middle">W25 · 排水洞坐标纸｜78,78</text>
  </g>

  <!-- 小周立绘（覆盖层，非背景）｜W24/W27 -->
  <g>
    <rect x="190" y="470" width="180" height="190" fill="none" stroke="#7fd1c8" stroke-width="2" stroke-dasharray="6 4" rx="6"/>
    <text x="280" y="502" fill="#7fd1c8" font-size="16" font-weight="bold" text-anchor="middle">小周立绘（覆盖层，非背景）· 在场</text>
  </g>
</svg>
