<svg xmlns="http://www.w3.org/2000/svg" viewBox="0 0 1280 720" font-family="Microsoft YaHei, PingFang SC, sans-serif">
  <defs>
    <linearGradient id="dc" x1="0" y1="0" x2="0" y2="1">
      <stop offset="0" stop-color="#0a0e16"/>
      <stop offset="1" stop-color="#04060a"/>
    </linearGradient>
    <radialGradient id="fail" cx="0.5" cy="0.5" r="0.5">
      <stop offset="0" stop-color="#ff4757" stop-opacity="0.45"/>
      <stop offset="1" stop-color="#ff4757" stop-opacity="0"/>
    </radialGradient>
  </defs>

  <rect x="0" y="0" width="1280" height="720" fill="url(#dc)"/>
  <rect x="3" y="3" width="1274" height="714" fill="none" stroke="#f5c542" stroke-width="5"/>
  <text x="14" y="30" fill="#f5c542" font-size="16" font-weight="bold">左上角 (0,0)</text>
  <text x="1158" y="704" fill="#f5c542" font-size="16" font-weight="bold">右下角 (100,100)</text>

  <rect x="110" y="100" width="1060" height="500" fill="#121620" stroke="#3a4a5c" stroke-width="2"/>

  <g>
    <rect x="440" y="220" width="400" height="200" fill="#0a0f16" stroke="#ff4757" stroke-width="3" rx="4"/>
    <rect x="456" y="238" width="368" height="14" fill="#ff4757" opacity="0.6"/>
    <rect x="456" y="262" width="320" height="14" fill="#ff4757" opacity="0.5"/>
    <rect x="456" y="286" width="280" height="14" fill="#ff4757" opacity="0.4"/>
    <rect x="456" y="310" width="240" height="14" fill="#ff4757" opacity="0.3"/>
    <text x="640" y="360" fill="#ff4757" font-size="22" font-weight="bold" text-anchor="middle">副本已删除</text>
    <circle cx="640" cy="320" r="130" fill="url(#fail)"/>
  </g>

  <g>
    <rect x="850" y="400" width="220" height="200" fill="none" stroke="#7fd1c8" stroke-width="2" stroke-dasharray="6 4" rx="6"/>
    <text x="960" y="600" fill="#7fd1c8" font-size="14" font-weight="bold" text-anchor="middle">小周立绘（覆盖层，非背景）· 回收证据</text>
  </g>

  <rect x="360" y="636" width="560" height="52" fill="#0d1118" stroke="#ff4757" stroke-width="2" rx="6"/>
  <text x="640" y="668" fill="#ff4757" font-size="17" font-weight="bold" text-anchor="middle">T14 · 失败：x-showdown-lost（证据被回收，副本清除；不画血腥）</text>
</svg>
